<?xml version="1.0" encoding="UTF-8"?>
<svg id="Layer_1" data-name="Layer 1" xmlns="http://www.w3.org/2000/svg" viewBox="0 0 641.93 237.69">
  <defs>
    <style>
      .cls-1 {
        fill: #fff;
        font-family: RomanticRegular, Romantic;
        font-size: 109.19px;
      }
    </style>
  </defs>
  <rect x="46.62" y="28.28" width="179.82" height="179.82" rx="56.69" ry="56.69"/>
  <text class="cls-1" transform="translate(86.66 152.13)"><tspan x="0" y="0">ht</tspan></text>
  <path d="M482.81,50.75c-19.74,0-31.91,6.21-31.91,23.34h17.63c0-6.83,7.95-7.32,13.91-7.32s14.27.86,14.27,8.69v1.24l-22.59,1.99c-16.27,1.48-26.7,4.84-26.7,17.87,0,16.02,12.42,19.99,28.19,19.99,12.91,0,19.37-4.34,21.1-10.3v8.44h19.62v-35.76c0-22.72-11.05-28.18-33.52-28.18ZM496.71,94.58c0,2.98-5.71,5.96-17.87,5.96-7.33,0-11.18-1.12-11.18-4.35,0-3.72,4.35-5.96,11.18-6.58l17.87-1.49v6.46ZM425.82,86.26c0-24.09-9.68-35.51-33.89-35.51-21.86,0-33.77,11.79-33.77,32.9s11.79,32.9,36,32.9c20.11,0,30.92-9.31,30.92-22.97h-17.63c0,3.73-5.47,6.96-13.29,6.96-8.44,0-15.02-3.23-15.15-12.42h46.81v-1.86ZM379.76,76.82c.37-7.07,6.83-10.05,13.41-10.05s13.16,3.1,13.28,10.05h-26.69ZM312.1,27.78v34.14h-37.38V27.78h-20.73v86.91h20.73v-34.14h37.38v34.14h20.73V27.78h-20.73ZM614.08,145.55h-24.21l-27.19,31.04,27.19,31.04h24.21l-28.06-31.04,28.06-31.04ZM543.06,28.1v179.53h19.62V28.1h-19.62ZM516.72,180.8c0,5.21-4.34,8.57-13.28,8.57s-15.27-3.73-15.27-14.9,5.83-14.65,14.4-14.65,13.41,3.35,13.41,8.56h17.5c0-14.9-10.8-26.69-30.91-26.69-24.46,0-34.64,11.05-34.64,32.9s11.92,32.9,34.89,32.9c21.35,0,31.41-11.79,31.41-26.69h-17.51ZM398.17,145.55v17.63h28.18l-36.38,44.45h24.46l24.09-27.94v27.94h19.62v-62.08h-59.97ZM364.9,143.69c-8.57,0-14.53,3.6-18.13,10.06v-8.2h-19.62v62.08h19.62v-32.16c0-10.3,4.59-13.65,12.17-13.65,6.45,0,10.43,3.35,10.43,8.81h17.5c0-18.99-8.69-26.94-21.97-26.94ZM253.15,120.72v18.62h25.58v68.29h20.74v-68.29h25.7v-18.62h-72.02Z"/>
</svg>